{"title":"TheConfession","uid":6990095,"size":638695918,"categoryP":"video","categoryS":"movies","magnet":"?xt=urn:btih:121df3e300bd5feba5c56f6a5ec60cc532fc41bf&amp;dn=TheConfession&amp;tr=udp%3A%2F%2Ftracker.openbittorrent.com%3A80&amp;tr=udp%3A%2F%2Fopen.demonii.com%3A1337&amp;tr=udp%3A%2F%2Ftracker.coppersurfer.tk%3A6969&amp;tr=udp%3A%2F%2Fexodus.desync.com%3A6969","seeders":0,"leechers":1,"uploader":"LegendET","files":4,"time":1327672618,"description":"\n &lt;a href=&quot;\nhttp://i1022.photobucket.com/albums/af344/kralcx/Movies/71MaZ3dBSWL_AA1500_.jpg&quot; rel=&quot;nofollow&quot; target=&quot;_NEW&quot;&gt;\nhttp://i1022.photobucket.com/albums/af344/kralcx/Movies/71MaZ3dBSWL_AA1500_.jpg&lt;/a&gt;\n\n\n\n\nTheConfession---------------------------\n| M O V I E information |\n---------------------------\nTitle................................: The Confession\nInternational title(s)...............: N/A\nDirector.............................: Brad Mirman\nRelease year.........................: 2012\nLanguage.............................: English\nRuntime..............................: 1hr 2min\nGenre................................: Drama\nColor................................: Yes\nIMDb rating..........................: 8.7/10\nLink 1...............................: http://www.imdb.com/title/tt1809362/\nLink 2...............................: http://www.amazon.com/Confession-John-Hu...653&amp;sr=1-1\nStudio...............................: New Video Group\nSubtitles............................: No\n\nSource (DVD/DVDR 5,9)..................: Apple\nTotal movie's files size...............: 593 MB\n\n-------------------\n| Video Attribute |\n-------------------\nVideo compression mode...............: N/A\nTV system (NTSC/PAL).................: N/A\nAspect ratio.........................: N/A\nSource picture resolution............: N/A\nFrame rate...........................: N/A\n\n-------- Subpicture attributes --------\nNumber of subtitles..................: N/A\nSubtitle language/s..................: N/A\n\n-------------------\n| Audio Attribute |\n-------------------\nAudio coding mode....................: N/A\nSampling rate........................: N/A\nNumber of audio channels.............: N/A\nBitrate..............................: N/A\nNumber of audio streams..............: N/A\nAudio stream language/s..............: N/A\n\n-------------------\n| RIP Information |\n-------------------\nVideo (Untouched/Re-encoded-%).......: N/A\nAudio (Untouched/Stripped)...........: N/A\nMenus (Untouched/Stripped)...........: N/A\nExtras (Untouched/Stripped/N/A)......: N/A\nSubtitles (Untouched/Stripped/Added).: N/A\n\n--------------------\n| Post Information |\n--------------------\nPosted by............................: N/A\nCompression method (RAR/ZIP).........: N/A\nFile validation......................: N/A\nPart size............................: N/A\nName of the part files...............: N/A\nNumber of files......................: N/A\nTotal files size.....................: N/A\nBurn tested..........................: N/A\nDate of post (d.m.y).................: 24.1.2012\nPosted to............................: N/A\nRe-posting policy....................: N/A\n\n----------------\n| Plot summary |\n----------------\nA unique story of redemption and an exploration of good and evil featuring a hit man and a priest.\n\n----------------\n| Release note |\n----------------\nGeneral\n\nFormat : AVI\nFormat/Info : Audio Video Interleave\nFile size : 593 MiB\nDuration : 1h 2mn\nOverall bit rate : 1 330 Kbps\n\nVideo\nID : 0\nFormat : MPEG-4 Visual\nFormat profile : Simple@L3\nFormat settings, BVOP : No\nFormat settings, QPel : No\nFormat settings, GMC : No warppoints\nFormat settings, Matrix : Default (H.263)\nCodec ID : XVID\nCodec ID/Hint : XviD\nDuration : 1h 2mn\nBit rate : 1 156 Kbps\nWidth : 640 pixels\nHeight : 416 pixels\nDisplay aspect ratio : 3:2\nFrame rate : 30.000 fps\nColor space : YUV\nChroma subsampling : 4:2:0\nBit depth : 8 bits\nScan type : Progressive\nCompression mode : Lossy\nBits/(Pixel*Frame) : 0.145\nStream size : 516 MiB (87%)\nWriting library : XviD 1.1.2 (UTC 2006-11-01)\n\nAudio\nID : 1\nFormat : MPEG Audio\nFormat version : Version 1\nFormat profile : Layer 3\nMode : Joint stereo\nMode extension : MS Stereo\nCodec ID : 55\nCodec ID/Hint : MP3\nDuration : 1h 2mn\nBit rate mode : Constant\nBit rate : 160 Kbps\nChannel(s) : 2 channels\nSampling rate : 48.0 KHz\nCompression mode : Lossy\nStream size : 71.4 MiB (12%)\nAlignment : Split accross interleaves\nInterleave, duration : 24 ms (0.72 video frame)\n\n\n\n---------------\n| Ripper note |\n---------------\nThis was made using Handbrake.\n\nI'm a solo act and this is a Kralcx Production\n\nHope you Enjoy!!\n\n &lt;a href=&quot;\nhttp://epicimg.net/images/lcxs.jpg&quot; rel=&quot;nofollow&quot; target=&quot;_NEW&quot;&gt;\nhttp://epicimg.net/images/lcxs.jpg&lt;/a&gt;","torrent":{"xt":"urn:btih:121df3e300bd5feba5c56f6a5ec60cc532fc41bf","amp;dn":"TheConfession","amp;tr":["udp%3A%2F%2Ftracker.openbittorrent.com%3A80","udp%3A%2F%2Fopen.demonii.com%3A1337","udp%3A%2F%2Ftracker.coppersurfer.tk%3A6969","udp%3A%2F%2Fexodus.desync.com%3A6969"],"infoHash":"121df3e300bd5feba5c56f6a5ec60cc532fc41bf","infoHashBuffer":{"type":"Buffer","data":[18,29,243,227,0,189,95,235,165,197,111,106,94,198,12,197,50,252,65,191]},"announce":[],"urlList":[]}}